<?xml version="1.0" encoding="UTF-8" standalone="no"?>
<!DOCTYPE svg PUBLIC "-//W3C//DTD SVG 1.1//EN"
 "http://www.w3.org/Graphics/SVG/1.1/DTD/svg11.dtd">
<!-- Generated by graphviz version 2.40.1 (0)
 -->
<!-- Title: scrobblers Pages: 1 -->
<svg width="453pt" height="577pt"
 viewBox="0.00 0.00 452.50 577.00" xmlns="http://www.w3.org/2000/svg" xmlns:xlink="http://www.w3.org/1999/xlink">
<g id="graph0" class="graph" transform="scale(1 1) rotate(0) translate(4 573)">
<title>scrobblers</title>
<polygon fill="#ffffff" stroke="transparent" points="-4,4 -4,-573 448.5,-573 448.5,4 -4,4"/>
<text text-anchor="middle" x="222.25" y="-53.8" font-family="Times,serif" font-size="14.00" fill="#000000">Scrobblers</text>
<text text-anchor="middle" x="222.25" y="-38.8" font-family="Times,serif" font-size="14.00" fill="#000000">Core event loop flowchart.</text>
<text text-anchor="middle" x="222.25" y="-7.8" font-family="Times,serif" font-size="14.00" fill="#000000">Created by Dom Rodriguez (shymega)</text>
<!-- app_start -->
<g id="node1" class="node">
<title>app_start</title>
<path fill="none" stroke="#000000" d="M321,-569C321,-569 243,-569 243,-569 237,-569 231,-563 231,-557 231,-557 231,-545 231,-545 231,-539 237,-533 243,-533 243,-533 321,-533 321,-533 327,-533 333,-539 333,-545 333,-545 333,-557 333,-557 333,-563 327,-569 321,-569"/>
<text text-anchor="middle" x="282" y="-547.3" font-family="Times,serif" font-size="14.00" fill="#000000">Start scrobbler.</text>
</g>
<!-- main_evt_loop_start -->
<g id="node2" class="node">
<title>main_evt_loop_start</title>
<path fill="none" stroke="#000000" d="M327.5,-497C327.5,-497 236.5,-497 236.5,-497 230.5,-497 224.5,-491 224.5,-485 224.5,-485 224.5,-473 224.5,-473 224.5,-467 230.5,-461 236.5,-461 236.5,-461 327.5,-461 327.5,-461 333.5,-461 339.5,-467 339.5,-473 339.5,-473 339.5,-485 339.5,-485 339.5,-491 333.5,-497 327.5,-497"/>
<text text-anchor="middle" x="282" y="-475.3" font-family="Times,serif" font-size="14.00" fill="#000000">Main event loop.</text>
</g>
<!-- app_start&#45;&gt;main_evt_loop_start -->
<g id="edge1" class="edge">
<title>app_start&#45;&gt;main_evt_loop_start</title>
<path fill="none" stroke="#000000" d="M282,-532.8314C282,-525.131 282,-515.9743 282,-507.4166"/>
<polygon fill="#000000" stroke="#000000" points="285.5001,-507.4132 282,-497.4133 278.5001,-507.4133 285.5001,-507.4132"/>
</g>
<!-- song_changed -->
<g id="node3" class="node">
<title>song_changed</title>
<path fill="none" stroke="#000000" d="M188.5,-425C188.5,-425 37.5,-425 37.5,-425 31.5,-425 25.5,-419 25.5,-413 25.5,-413 25.5,-401 25.5,-401 25.5,-395 31.5,-389 37.5,-389 37.5,-389 188.5,-389 188.5,-389 194.5,-389 200.5,-395 200.5,-401 200.5,-401 200.5,-413 200.5,-413 200.5,-419 194.5,-425 188.5,-425"/>
<text text-anchor="middle" x="113" y="-403.3" font-family="Times,serif" font-size="14.00" fill="#000000">Song changed from source.</text>
</g>
<!-- main_evt_loop_start&#45;&gt;song_changed -->
<g id="edge8" class="edge">
<title>main_evt_loop_start&#45;&gt;song_changed</title>
<path fill="none" stroke="#000000" d="M239.3542,-460.8314C216.651,-451.159 188.5549,-439.1891 164.6258,-428.9944"/>
<polygon fill="#000000" stroke="#000000" points="165.9109,-425.7376 155.3392,-425.038 163.1672,-432.1775 165.9109,-425.7376"/>
</g>
<!-- rpcq_receive -->
<g id="node5" class="node">
<title>rpcq_receive</title>
<path fill="none" stroke="#000000" d="M400.5,-425C400.5,-425 269.5,-425 269.5,-425 263.5,-425 257.5,-419 257.5,-413 257.5,-413 257.5,-401 257.5,-401 257.5,-395 263.5,-389 269.5,-389 269.5,-389 400.5,-389 400.5,-389 406.5,-389 412.5,-395 412.5,-401 412.5,-401 412.5,-413 412.5,-413 412.5,-419 406.5,-425 400.5,-425"/>
<text text-anchor="middle" x="335" y="-403.3" font-family="Times,serif" font-size="14.00" fill="#000000">Received RPC message.</text>
</g>
<!-- main_evt_loop_start&#45;&gt;rpcq_receive -->
<g id="edge3" class="edge">
<title>main_evt_loop_start&#45;&gt;rpcq_receive</title>
<path fill="none" stroke="#000000" d="M295.3741,-460.8314C301.4162,-452.6232 308.6763,-442.7606 315.3221,-433.7323"/>
<polygon fill="#000000" stroke="#000000" points="318.3363,-435.5415 321.4458,-425.4133 312.6989,-431.3918 318.3363,-435.5415"/>
</g>
<!-- rpcq_loop -->
<g id="node9" class="node">
<title>rpcq_loop</title>
<path fill="none" stroke="#000000" d="M432.5,-137C432.5,-137 343.5,-137 343.5,-137 337.5,-137 331.5,-131 331.5,-125 331.5,-125 331.5,-113 331.5,-113 331.5,-107 337.5,-101 343.5,-101 343.5,-101 432.5,-101 432.5,-101 438.5,-101 444.5,-107 444.5,-113 444.5,-113 444.5,-125 444.5,-125 444.5,-131 438.5,-137 432.5,-137"/>
<text text-anchor="middle" x="388" y="-115.3" font-family="Times,serif" font-size="14.00" fill="#000000">RPC event loop.</text>
</g>
<!-- main_evt_loop_start&#45;&gt;rpcq_loop -->
<g id="edge2" class="edge">
<title>main_evt_loop_start&#45;&gt;rpcq_loop</title>
<path fill="none" stroke="#000000" d="M339.821,-469.7082C368.1585,-462.2411 400.5093,-448.8654 421,-425 447.6926,-393.9111 441,-375.9758 441,-335 441,-335 441,-335 441,-263 441,-220.1582 420.084,-174.3149 404.5311,-146.1484"/>
<polygon fill="#000000" stroke="#000000" points="407.4868,-144.2655 399.5002,-137.3038 401.4022,-147.7265 407.4868,-144.2655"/>
</g>
<!-- queue_to_scrobbleq -->
<g id="node4" class="node">
<title>queue_to_scrobbleq</title>
<path fill="none" stroke="#000000" d="M230,-353C230,-353 12,-353 12,-353 6,-353 0,-347 0,-341 0,-341 0,-329 0,-329 0,-323 6,-317 12,-317 12,-317 230,-317 230,-317 236,-317 242,-323 242,-329 242,-329 242,-341 242,-341 242,-347 236,-353 230,-353"/>
<text text-anchor="middle" x="121" y="-331.3" font-family="Times,serif" font-size="14.00" fill="#000000">Queue song change to Scrobble queue.</text>
</g>
<!-- song_changed&#45;&gt;queue_to_scrobbleq -->
<g id="edge9" class="edge">
<title>song_changed&#45;&gt;queue_to_scrobbleq</title>
<path fill="none" stroke="#000000" d="M115.0187,-388.8314C115.8743,-381.131 116.8917,-371.9743 117.8426,-363.4166"/>
<polygon fill="#000000" stroke="#000000" points="121.3283,-363.7386 118.9541,-353.4133 114.3711,-362.9656 121.3283,-363.7386"/>
</g>
<!-- queue_to_scrobbleq&#45;&gt;main_evt_loop_start -->
<g id="edge10" class="edge">
<title>queue_to_scrobbleq&#45;&gt;main_evt_loop_start</title>
<path fill="none" stroke="#000000" d="M156.2814,-353.0013C173.157,-362.493 193.0962,-375.0555 209,-389 230.5139,-407.8635 250.6538,-433.5445 264.3066,-452.6464"/>
<polygon fill="#000000" stroke="#000000" points="261.4965,-454.7352 270.1046,-460.9118 267.2272,-450.7152 261.4965,-454.7352"/>
</g>
<!-- rpcq_parse -->
<g id="node6" class="node">
<title>rpcq_parse</title>
<path fill="none" stroke="#000000" d="M389.5,-353C389.5,-353 280.5,-353 280.5,-353 274.5,-353 268.5,-347 268.5,-341 268.5,-341 268.5,-329 268.5,-329 268.5,-323 274.5,-317 280.5,-317 280.5,-317 389.5,-317 389.5,-317 395.5,-317 401.5,-323 401.5,-329 401.5,-329 401.5,-341 401.5,-341 401.5,-347 395.5,-353 389.5,-353"/>
<text text-anchor="middle" x="335" y="-331.3" font-family="Times,serif" font-size="14.00" fill="#000000">Parse RPC message.</text>
</g>
<!-- rpcq_receive&#45;&gt;rpcq_parse -->
<g id="edge4" class="edge">
<title>rpcq_receive&#45;&gt;rpcq_parse</title>
<path fill="none" stroke="#000000" d="M335,-388.8314C335,-381.131 335,-371.9743 335,-363.4166"/>
<polygon fill="#000000" stroke="#000000" points="338.5001,-363.4132 335,-353.4133 331.5001,-363.4133 338.5001,-363.4132"/>
</g>
<!-- rpcq_command -->
<g id="node7" class="node">
<title>rpcq_command</title>
<path fill="none" stroke="#000000" d="M400.5,-281C400.5,-281 269.5,-281 269.5,-281 263.5,-281 257.5,-275 257.5,-269 257.5,-269 257.5,-257 257.5,-257 257.5,-251 263.5,-245 269.5,-245 269.5,-245 400.5,-245 400.5,-245 406.5,-245 412.5,-251 412.5,-257 412.5,-257 412.5,-269 412.5,-269 412.5,-275 406.5,-281 400.5,-281"/>
<text text-anchor="middle" x="335" y="-259.3" font-family="Times,serif" font-size="14.00" fill="#000000">Process RPC command.</text>
</g>
<!-- rpcq_parse&#45;&gt;rpcq_command -->
<g id="edge5" class="edge">
<title>rpcq_parse&#45;&gt;rpcq_command</title>
<path fill="none" stroke="#000000" d="M335,-316.8314C335,-309.131 335,-299.9743 335,-291.4166"/>
<polygon fill="#000000" stroke="#000000" points="338.5001,-291.4132 335,-281.4133 331.5001,-291.4133 338.5001,-291.4132"/>
</g>
<!-- rpcq_ret_loop -->
<g id="node8" class="node">
<title>rpcq_ret_loop</title>
<path fill="none" stroke="#000000" d="M396,-209C396,-209 284,-209 284,-209 278,-209 272,-203 272,-197 272,-197 272,-185 272,-185 272,-179 278,-173 284,-173 284,-173 396,-173 396,-173 402,-173 408,-179 408,-185 408,-185 408,-197 408,-197 408,-203 402,-209 396,-209"/>
<text text-anchor="middle" x="340" y="-187.3" font-family="Times,serif" font-size="14.00" fill="#000000">Return to RPC loop.</text>
</g>
<!-- rpcq_command&#45;&gt;rpcq_ret_loop -->
<g id="edge6" class="edge">
<title>rpcq_command&#45;&gt;rpcq_ret_loop</title>
<path fill="none" stroke="#000000" d="M336.2617,-244.8314C336.7965,-237.131 337.4323,-227.9743 338.0266,-219.4166"/>
<polygon fill="#000000" stroke="#000000" points="341.52,-219.6317 338.7213,-209.4133 334.5368,-219.1467 341.52,-219.6317"/>
</g>
<!-- rpcq_ret_loop&#45;&gt;rpcq_loop -->
<g id="edge7" class="edge">
<title>rpcq_ret_loop&#45;&gt;rpcq_loop</title>
<path fill="none" stroke="#000000" d="M352.1124,-172.8314C357.5281,-164.7079 364.0242,-154.9637 369.9921,-146.0118"/>
<polygon fill="#000000" stroke="#000000" points="373.0896,-147.6753 375.7245,-137.4133 367.2653,-143.7923 373.0896,-147.6753"/>
</g>
</g>
</svg>
