<?xml version="1.0" encoding="UTF-8" standalone="no"?>
<!DOCTYPE svg PUBLIC "-//W3C//DTD SVG 1.1//EN"
 "http://www.w3.org/Graphics/SVG/1.1/DTD/svg11.dtd">
<!-- Generated by graphviz version 2.40.1 (20161225.0304)
 -->
<!-- Title: scrobblers Pages: 1 -->
<svg width="544pt" height="361pt"
 viewBox="0.00 0.00 543.50 361.00" xmlns="http://www.w3.org/2000/svg" xmlns:xlink="http://www.w3.org/1999/xlink">
<g id="graph0" class="graph" transform="scale(1 1) rotate(0) translate(4 357)">
<title>scrobblers</title>
<polygon fill="#ffffff" stroke="transparent" points="-4,4 -4,-357 539.5,-357 539.5,4 -4,4"/>
<text text-anchor="middle" x="267.75" y="-53.8" font-family="Times,serif" font-size="14.00" fill="#000000">Scrobblers</text>
<text text-anchor="middle" x="267.75" y="-38.8" font-family="Times,serif" font-size="14.00" fill="#000000">Core event loop flowchart.</text>
<text text-anchor="middle" x="267.75" y="-7.8" font-family="Times,serif" font-size="14.00" fill="#000000">Created by Dom Rodriguez (shymega)</text>
<!-- app_start -->
<g id="node1" class="node">
<title>app_start</title>
<path fill="none" stroke="#000000" d="M343.5,-353C343.5,-353 240.5,-353 240.5,-353 234.5,-353 228.5,-347 228.5,-341 228.5,-341 228.5,-329 228.5,-329 228.5,-323 234.5,-317 240.5,-317 240.5,-317 343.5,-317 343.5,-317 349.5,-317 355.5,-323 355.5,-329 355.5,-329 355.5,-341 355.5,-341 355.5,-347 349.5,-353 343.5,-353"/>
<text text-anchor="middle" x="292" y="-331.3" font-family="Times,serif" font-size="14.00" fill="#000000">Program entrypoint.</text>
</g>
<!-- evt0_loop_start -->
<g id="node2" class="node">
<title>evt0_loop_start</title>
<path fill="none" stroke="#000000" d="M334.5,-281C334.5,-281 249.5,-281 249.5,-281 243.5,-281 237.5,-275 237.5,-269 237.5,-269 237.5,-257 237.5,-257 237.5,-251 243.5,-245 249.5,-245 249.5,-245 334.5,-245 334.5,-245 340.5,-245 346.5,-251 346.5,-257 346.5,-257 346.5,-269 346.5,-269 346.5,-275 340.5,-281 334.5,-281"/>
<text text-anchor="middle" x="292" y="-259.3" font-family="Times,serif" font-size="14.00" fill="#000000">Main event loop.</text>
</g>
<!-- app_start&#45;&gt;evt0_loop_start -->
<g id="edge1" class="edge">
<title>app_start&#45;&gt;evt0_loop_start</title>
<path fill="none" stroke="#000000" d="M292,-316.8314C292,-309.131 292,-299.9743 292,-291.4166"/>
<polygon fill="#000000" stroke="#000000" points="295.5001,-291.4132 292,-281.4133 288.5001,-291.4133 295.5001,-291.4132"/>
</g>
<!-- song_changed -->
<g id="node3" class="node">
<title>song_changed</title>
<path fill="none" stroke="#000000" d="M200,-209C200,-209 12,-209 12,-209 6,-209 0,-203 0,-197 0,-197 0,-185 0,-185 0,-179 6,-173 12,-173 12,-173 200,-173 200,-173 206,-173 212,-179 212,-185 212,-185 212,-197 212,-197 212,-203 206,-209 200,-209"/>
<text text-anchor="middle" x="106" y="-187.3" font-family="Times,serif" font-size="14.00" fill="#000000">Song changed from arbitary source.</text>
</g>
<!-- evt0_loop_start&#45;&gt;song_changed -->
<g id="edge2" class="edge">
<title>evt0_loop_start&#45;&gt;song_changed</title>
<path fill="none" stroke="#000000" d="M245.0643,-244.8314C219.8563,-235.0734 188.6074,-222.977 162.1209,-212.7242"/>
<polygon fill="#000000" stroke="#000000" points="163.1873,-209.384 152.5981,-209.038 160.6603,-215.912 163.1873,-209.384"/>
</g>
<!-- receive_client_message -->
<g id="node5" class="node">
<title>receive_client_message</title>
<path fill="none" stroke="#000000" d="M408,-209C408,-209 280,-209 280,-209 274,-209 268,-203 268,-197 268,-197 268,-185 268,-185 268,-179 274,-173 280,-173 280,-173 408,-173 408,-173 414,-173 420,-179 420,-185 420,-185 420,-197 420,-197 420,-203 414,-209 408,-209"/>
<text text-anchor="middle" x="344" y="-187.3" font-family="Times,serif" font-size="14.00" fill="#000000">Received client message.</text>
</g>
<!-- evt0_loop_start&#45;&gt;receive_client_message -->
<g id="edge4" class="edge">
<title>evt0_loop_start&#45;&gt;receive_client_message</title>
<path fill="none" stroke="#000000" d="M305.1218,-244.8314C311.0499,-236.6232 318.1729,-226.7606 324.6933,-217.7323"/>
<polygon fill="#000000" stroke="#000000" points="327.684,-219.5693 330.7015,-209.4133 322.0092,-215.4708 327.684,-219.5693"/>
</g>
<!-- queue_to_scrobbleq -->
<g id="node4" class="node">
<title>queue_to_scrobbleq</title>
<path fill="none" stroke="#000000" d="M256,-137C256,-137 52,-137 52,-137 46,-137 40,-131 40,-125 40,-125 40,-113 40,-113 40,-107 46,-101 52,-101 52,-101 256,-101 256,-101 262,-101 268,-107 268,-113 268,-113 268,-125 268,-125 268,-131 262,-137 256,-137"/>
<text text-anchor="middle" x="154" y="-115.3" font-family="Times,serif" font-size="14.00" fill="#000000">Queue song change to Scrobble queue.</text>
</g>
<!-- song_changed&#45;&gt;queue_to_scrobbleq -->
<g id="edge3" class="edge">
<title>song_changed&#45;&gt;queue_to_scrobbleq</title>
<path fill="none" stroke="#000000" d="M118.1124,-172.8314C123.5281,-164.7079 130.0242,-154.9637 135.9921,-146.0118"/>
<polygon fill="#000000" stroke="#000000" points="139.0896,-147.6753 141.7245,-137.4133 133.2653,-143.7923 139.0896,-147.6753"/>
</g>
<!-- queue_to_scrobbleq&#45;&gt;evt0_loop_start -->
<g id="edge6" class="edge">
<title>queue_to_scrobbleq&#45;&gt;evt0_loop_start</title>
<path fill="none" stroke="#000000" d="M178.9955,-137.005C192.1025,-146.9626 208.0744,-159.9387 221,-173 240.5778,-192.7833 259.9542,-217.8111 273.5065,-236.4491"/>
<polygon fill="#000000" stroke="#000000" points="270.81,-238.6946 279.4848,-244.7772 276.4966,-234.6125 270.81,-238.6946"/>
</g>
<!-- queue_to_clientq -->
<g id="node6" class="node">
<title>queue_to_clientq</title>
<path fill="none" stroke="#000000" d="M523.5,-137C523.5,-137 322.5,-137 322.5,-137 316.5,-137 310.5,-131 310.5,-125 310.5,-125 310.5,-113 310.5,-113 310.5,-107 316.5,-101 322.5,-101 322.5,-101 523.5,-101 523.5,-101 529.5,-101 535.5,-107 535.5,-113 535.5,-113 535.5,-125 535.5,-125 535.5,-131 529.5,-137 523.5,-137"/>
<text text-anchor="middle" x="423" y="-115.3" font-family="Times,serif" font-size="14.00" fill="#000000">Queue client message to Client queue.</text>
</g>
<!-- receive_client_message&#45;&gt;queue_to_clientq -->
<g id="edge5" class="edge">
<title>receive_client_message&#45;&gt;queue_to_clientq</title>
<path fill="none" stroke="#000000" d="M363.935,-172.8314C373.4783,-164.1337 385.0599,-153.5783 395.4306,-144.1265"/>
<polygon fill="#000000" stroke="#000000" points="398.038,-146.4857 403.0713,-137.1628 393.3228,-141.3121 398.038,-146.4857"/>
</g>
<!-- queue_to_clientq&#45;&gt;evt0_loop_start -->
<g id="edge7" class="edge">
<title>queue_to_clientq&#45;&gt;evt0_loop_start</title>
<path fill="none" stroke="#000000" d="M430.367,-137.2906C436.9247,-156.8049 443.4516,-187.7701 429,-209 420.0367,-222.1674 387.3398,-235.3105 356.1378,-245.3331"/>
<polygon fill="#000000" stroke="#000000" points="355.0285,-242.0128 346.5304,-248.34 357.1193,-248.6933 355.0285,-242.0128"/>
</g>
</g>
</svg>
