<?xml version="1.0" encoding="UTF-8" standalone="no"?>
<!DOCTYPE svg PUBLIC "-//W3C//DTD SVG 1.1//EN"
 "http://www.w3.org/Graphics/SVG/1.1/DTD/svg11.dtd">
<!-- Generated by graphviz version 2.40.1 (20161225.0304)
 -->
<!-- Title: scrobblers Pages: 1 -->
<svg width="544pt" height="376pt"
 viewBox="0.00 0.00 543.50 376.00" xmlns="http://www.w3.org/2000/svg" xmlns:xlink="http://www.w3.org/1999/xlink">
<g id="graph0" class="graph" transform="scale(1 1) rotate(0) translate(4 372)">
<title>scrobblers</title>
<polygon fill="#ffffff" stroke="transparent" points="-4,4 -4,-372 539.5,-372 539.5,4 -4,4"/>
<text text-anchor="middle" x="267.75" y="-68.8" font-family="Times,serif" font-size="14.00" fill="#000000">Scrobblers</text>
<text text-anchor="middle" x="267.75" y="-53.8" font-family="Times,serif" font-size="14.00" fill="#000000">Core event loop flowchart.</text>
<text text-anchor="middle" x="267.75" y="-22.8" font-family="Times,serif" font-size="14.00" fill="#000000">Created by Dom Rodriguez (shymega)</text>
<text text-anchor="middle" x="267.75" y="-7.8" font-family="Times,serif" font-size="14.00" fill="#000000">tt</text>
<!-- app_start -->
<g id="node1" class="node">
<title>app_start</title>
<path fill="none" stroke="#000000" d="M343.5,-368C343.5,-368 240.5,-368 240.5,-368 234.5,-368 228.5,-362 228.5,-356 228.5,-356 228.5,-344 228.5,-344 228.5,-338 234.5,-332 240.5,-332 240.5,-332 343.5,-332 343.5,-332 349.5,-332 355.5,-338 355.5,-344 355.5,-344 355.5,-356 355.5,-356 355.5,-362 349.5,-368 343.5,-368"/>
<text text-anchor="middle" x="292" y="-346.3" font-family="Times,serif" font-size="14.00" fill="#000000">Program entrypoint.</text>
</g>
<!-- evt0_loop_start -->
<g id="node2" class="node">
<title>evt0_loop_start</title>
<path fill="none" stroke="#000000" d="M334.5,-296C334.5,-296 249.5,-296 249.5,-296 243.5,-296 237.5,-290 237.5,-284 237.5,-284 237.5,-272 237.5,-272 237.5,-266 243.5,-260 249.5,-260 249.5,-260 334.5,-260 334.5,-260 340.5,-260 346.5,-266 346.5,-272 346.5,-272 346.5,-284 346.5,-284 346.5,-290 340.5,-296 334.5,-296"/>
<text text-anchor="middle" x="292" y="-274.3" font-family="Times,serif" font-size="14.00" fill="#000000">Main event loop.</text>
</g>
<!-- app_start&#45;&gt;evt0_loop_start -->
<g id="edge1" class="edge">
<title>app_start&#45;&gt;evt0_loop_start</title>
<path fill="none" stroke="#000000" d="M292,-331.8314C292,-324.131 292,-314.9743 292,-306.4166"/>
<polygon fill="#000000" stroke="#000000" points="295.5001,-306.4132 292,-296.4133 288.5001,-306.4133 295.5001,-306.4132"/>
</g>
<!-- song_changed -->
<g id="node3" class="node">
<title>song_changed</title>
<path fill="none" stroke="#000000" d="M200,-224C200,-224 12,-224 12,-224 6,-224 0,-218 0,-212 0,-212 0,-200 0,-200 0,-194 6,-188 12,-188 12,-188 200,-188 200,-188 206,-188 212,-194 212,-200 212,-200 212,-212 212,-212 212,-218 206,-224 200,-224"/>
<text text-anchor="middle" x="106" y="-202.3" font-family="Times,serif" font-size="14.00" fill="#000000">Song changed from arbitary source.</text>
</g>
<!-- evt0_loop_start&#45;&gt;song_changed -->
<g id="edge2" class="edge">
<title>evt0_loop_start&#45;&gt;song_changed</title>
<path fill="none" stroke="#000000" d="M245.0643,-259.8314C219.8563,-250.0734 188.6074,-237.977 162.1209,-227.7242"/>
<polygon fill="#000000" stroke="#000000" points="163.1873,-224.384 152.5981,-224.038 160.6603,-230.912 163.1873,-224.384"/>
</g>
<!-- receive_client_message -->
<g id="node5" class="node">
<title>receive_client_message</title>
<path fill="none" stroke="#000000" d="M408,-224C408,-224 280,-224 280,-224 274,-224 268,-218 268,-212 268,-212 268,-200 268,-200 268,-194 274,-188 280,-188 280,-188 408,-188 408,-188 414,-188 420,-194 420,-200 420,-200 420,-212 420,-212 420,-218 414,-224 408,-224"/>
<text text-anchor="middle" x="344" y="-202.3" font-family="Times,serif" font-size="14.00" fill="#000000">Received client message.</text>
</g>
<!-- evt0_loop_start&#45;&gt;receive_client_message -->
<g id="edge4" class="edge">
<title>evt0_loop_start&#45;&gt;receive_client_message</title>
<path fill="none" stroke="#000000" d="M305.1218,-259.8314C311.0499,-251.6232 318.1729,-241.7606 324.6933,-232.7323"/>
<polygon fill="#000000" stroke="#000000" points="327.684,-234.5693 330.7015,-224.4133 322.0092,-230.4708 327.684,-234.5693"/>
</g>
<!-- queue_to_scrobbleq -->
<g id="node4" class="node">
<title>queue_to_scrobbleq</title>
<path fill="none" stroke="#000000" d="M256,-152C256,-152 52,-152 52,-152 46,-152 40,-146 40,-140 40,-140 40,-128 40,-128 40,-122 46,-116 52,-116 52,-116 256,-116 256,-116 262,-116 268,-122 268,-128 268,-128 268,-140 268,-140 268,-146 262,-152 256,-152"/>
<text text-anchor="middle" x="154" y="-130.3" font-family="Times,serif" font-size="14.00" fill="#000000">Queue song change to Scrobble queue.</text>
</g>
<!-- song_changed&#45;&gt;queue_to_scrobbleq -->
<g id="edge3" class="edge">
<title>song_changed&#45;&gt;queue_to_scrobbleq</title>
<path fill="none" stroke="#000000" d="M118.1124,-187.8314C123.5281,-179.7079 130.0242,-169.9637 135.9921,-161.0118"/>
<polygon fill="#000000" stroke="#000000" points="139.0896,-162.6753 141.7245,-152.4133 133.2653,-158.7923 139.0896,-162.6753"/>
</g>
<!-- queue_to_scrobbleq&#45;&gt;evt0_loop_start -->
<g id="edge6" class="edge">
<title>queue_to_scrobbleq&#45;&gt;evt0_loop_start</title>
<path fill="none" stroke="#000000" d="M178.9955,-152.005C192.1025,-161.9626 208.0744,-174.9387 221,-188 240.5778,-207.7833 259.9542,-232.8111 273.5065,-251.4491"/>
<polygon fill="#000000" stroke="#000000" points="270.81,-253.6946 279.4848,-259.7772 276.4966,-249.6125 270.81,-253.6946"/>
</g>
<!-- queue_to_clientq -->
<g id="node6" class="node">
<title>queue_to_clientq</title>
<path fill="none" stroke="#000000" d="M523.5,-152C523.5,-152 322.5,-152 322.5,-152 316.5,-152 310.5,-146 310.5,-140 310.5,-140 310.5,-128 310.5,-128 310.5,-122 316.5,-116 322.5,-116 322.5,-116 523.5,-116 523.5,-116 529.5,-116 535.5,-122 535.5,-128 535.5,-128 535.5,-140 535.5,-140 535.5,-146 529.5,-152 523.5,-152"/>
<text text-anchor="middle" x="423" y="-130.3" font-family="Times,serif" font-size="14.00" fill="#000000">Queue client message to Client queue.</text>
</g>
<!-- receive_client_message&#45;&gt;queue_to_clientq -->
<g id="edge5" class="edge">
<title>receive_client_message&#45;&gt;queue_to_clientq</title>
<path fill="none" stroke="#000000" d="M363.935,-187.8314C373.4783,-179.1337 385.0599,-168.5783 395.4306,-159.1265"/>
<polygon fill="#000000" stroke="#000000" points="398.038,-161.4857 403.0713,-152.1628 393.3228,-156.3121 398.038,-161.4857"/>
</g>
<!-- queue_to_clientq&#45;&gt;evt0_loop_start -->
<g id="edge7" class="edge">
<title>queue_to_clientq&#45;&gt;evt0_loop_start</title>
<path fill="none" stroke="#000000" d="M430.367,-152.2906C436.9247,-171.8049 443.4516,-202.7701 429,-224 420.0367,-237.1674 387.3398,-250.3105 356.1378,-260.3331"/>
<polygon fill="#000000" stroke="#000000" points="355.0285,-257.0128 346.5304,-263.34 357.1193,-263.6933 355.0285,-257.0128"/>
</g>
</g>
</svg>
