<?xml version="1.0" encoding="UTF-8" standalone="no"?>
<!DOCTYPE svg PUBLIC "-//W3C//DTD SVG 1.1//EN"
 "http://www.w3.org/Graphics/SVG/1.1/DTD/svg11.dtd">
<!-- Generated by graphviz version 2.40.1 (20161225.0304)
 -->
<!-- Title: scrobblers Pages: 1 -->
<svg width="566pt" height="361pt"
 viewBox="0.00 0.00 565.50 361.00" xmlns="http://www.w3.org/2000/svg" xmlns:xlink="http://www.w3.org/1999/xlink">
<g id="graph0" class="graph" transform="scale(1 1) rotate(0) translate(4 357)">
<title>scrobblers</title>
<polygon fill="#ffffff" stroke="transparent" points="-4,4 -4,-357 561.5,-357 561.5,4 -4,4"/>
<text text-anchor="middle" x="278.75" y="-53.8" font-family="Times,serif" font-size="14.00" fill="#000000">Scrobblers</text>
<text text-anchor="middle" x="278.75" y="-38.8" font-family="Times,serif" font-size="14.00" fill="#000000">Core event loop flowchart.</text>
<text text-anchor="middle" x="278.75" y="-7.8" font-family="Times,serif" font-size="14.00" fill="#000000">Created by Dom Rodriguez (shymega)</text>
<!-- app_start -->
<g id="node1" class="node">
<title>app_start</title>
<path fill="none" stroke="#000000" d="M357.5,-353C357.5,-353 248.5,-353 248.5,-353 242.5,-353 236.5,-347 236.5,-341 236.5,-341 236.5,-329 236.5,-329 236.5,-323 242.5,-317 248.5,-317 248.5,-317 357.5,-317 357.5,-317 363.5,-317 369.5,-323 369.5,-329 369.5,-329 369.5,-341 369.5,-341 369.5,-347 363.5,-353 357.5,-353"/>
<text text-anchor="middle" x="303" y="-331.3" font-family="Times,serif" font-size="14.00" fill="#000000">Program entrypoint.</text>
</g>
<!-- evt0_loop_start -->
<g id="node2" class="node">
<title>evt0_loop_start</title>
<path fill="none" stroke="#000000" d="M348.5,-281C348.5,-281 257.5,-281 257.5,-281 251.5,-281 245.5,-275 245.5,-269 245.5,-269 245.5,-257 245.5,-257 245.5,-251 251.5,-245 257.5,-245 257.5,-245 348.5,-245 348.5,-245 354.5,-245 360.5,-251 360.5,-257 360.5,-257 360.5,-269 360.5,-269 360.5,-275 354.5,-281 348.5,-281"/>
<text text-anchor="middle" x="303" y="-259.3" font-family="Times,serif" font-size="14.00" fill="#000000">Main event loop.</text>
</g>
<!-- app_start&#45;&gt;evt0_loop_start -->
<g id="edge1" class="edge">
<title>app_start&#45;&gt;evt0_loop_start</title>
<path fill="none" stroke="#000000" d="M303,-316.8314C303,-309.131 303,-299.9743 303,-291.4166"/>
<polygon fill="#000000" stroke="#000000" points="306.5001,-291.4132 303,-281.4133 299.5001,-291.4133 306.5001,-291.4132"/>
</g>
<!-- song_changed -->
<g id="node3" class="node">
<title>song_changed</title>
<path fill="none" stroke="#000000" d="M210,-209C210,-209 12,-209 12,-209 6,-209 0,-203 0,-197 0,-197 0,-185 0,-185 0,-179 6,-173 12,-173 12,-173 210,-173 210,-173 216,-173 222,-179 222,-185 222,-185 222,-197 222,-197 222,-203 216,-209 210,-209"/>
<text text-anchor="middle" x="111" y="-187.3" font-family="Times,serif" font-size="14.00" fill="#000000">Song changed from arbitary source.</text>
</g>
<!-- evt0_loop_start&#45;&gt;song_changed -->
<g id="edge2" class="edge">
<title>evt0_loop_start&#45;&gt;song_changed</title>
<path fill="none" stroke="#000000" d="M254.5503,-244.8314C228.4149,-235.0306 195.9891,-222.8709 168.5717,-212.5894"/>
<polygon fill="#000000" stroke="#000000" points="169.6936,-209.2721 159.1013,-209.038 167.2357,-215.8264 169.6936,-209.2721"/>
</g>
<!-- receive_client_message -->
<g id="node5" class="node">
<title>receive_client_message</title>
<path fill="none" stroke="#000000" d="M424,-209C424,-209 290,-209 290,-209 284,-209 278,-203 278,-197 278,-197 278,-185 278,-185 278,-179 284,-173 290,-173 290,-173 424,-173 424,-173 430,-173 436,-179 436,-185 436,-185 436,-197 436,-197 436,-203 430,-209 424,-209"/>
<text text-anchor="middle" x="357" y="-187.3" font-family="Times,serif" font-size="14.00" fill="#000000">Received client message.</text>
</g>
<!-- evt0_loop_start&#45;&gt;receive_client_message -->
<g id="edge4" class="edge">
<title>evt0_loop_start&#45;&gt;receive_client_message</title>
<path fill="none" stroke="#000000" d="M316.6265,-244.8314C322.846,-236.5386 330.3322,-226.557 337.16,-217.4533"/>
<polygon fill="#000000" stroke="#000000" points="339.99,-219.5133 343.19,-209.4133 334.39,-215.3133 339.99,-219.5133"/>
</g>
<!-- queue_to_scrobbleq -->
<g id="node4" class="node">
<title>queue_to_scrobbleq</title>
<path fill="none" stroke="#000000" d="M268,-137C268,-137 50,-137 50,-137 44,-137 38,-131 38,-125 38,-125 38,-113 38,-113 38,-107 44,-101 50,-101 50,-101 268,-101 268,-101 274,-101 280,-107 280,-113 280,-113 280,-125 280,-125 280,-131 274,-137 268,-137"/>
<text text-anchor="middle" x="159" y="-115.3" font-family="Times,serif" font-size="14.00" fill="#000000">Queue song change to Scrobble queue.</text>
</g>
<!-- song_changed&#45;&gt;queue_to_scrobbleq -->
<g id="edge3" class="edge">
<title>song_changed&#45;&gt;queue_to_scrobbleq</title>
<path fill="none" stroke="#000000" d="M123.1124,-172.8314C128.5281,-164.7079 135.0242,-154.9637 140.9921,-146.0118"/>
<polygon fill="#000000" stroke="#000000" points="144.0896,-147.6753 146.7245,-137.4133 138.2653,-143.7923 144.0896,-147.6753"/>
</g>
<!-- queue_to_scrobbleq&#45;&gt;evt0_loop_start -->
<g id="edge6" class="edge">
<title>queue_to_scrobbleq&#45;&gt;evt0_loop_start</title>
<path fill="none" stroke="#000000" d="M186.6241,-137.235C200.5966,-147.0583 217.4241,-159.8417 231,-173 251.3098,-192.6851 271.1423,-218.0705 284.8326,-236.8598"/>
<polygon fill="#000000" stroke="#000000" points="281.9927,-238.9055 290.6702,-244.9844 287.6775,-234.821 281.9927,-238.9055"/>
</g>
<!-- queue_to_clientq -->
<g id="node6" class="node">
<title>queue_to_clientq</title>
<path fill="none" stroke="#000000" d="M545.5,-137C545.5,-137 334.5,-137 334.5,-137 328.5,-137 322.5,-131 322.5,-125 322.5,-125 322.5,-113 322.5,-113 322.5,-107 328.5,-101 334.5,-101 334.5,-101 545.5,-101 545.5,-101 551.5,-101 557.5,-107 557.5,-113 557.5,-113 557.5,-125 557.5,-125 557.5,-131 551.5,-137 545.5,-137"/>
<text text-anchor="middle" x="440" y="-115.3" font-family="Times,serif" font-size="14.00" fill="#000000">Queue client message to Client queue.</text>
</g>
<!-- receive_client_message&#45;&gt;queue_to_clientq -->
<g id="edge5" class="edge">
<title>receive_client_message&#45;&gt;queue_to_clientq</title>
<path fill="none" stroke="#000000" d="M377.9444,-172.8314C388.0691,-164.0485 400.3777,-153.3712 411.3548,-143.8489"/>
<polygon fill="#000000" stroke="#000000" points="413.8019,-146.3595 419.0623,-137.1628 409.2149,-141.0718 413.8019,-146.3595"/>
</g>
<!-- queue_to_clientq&#45;&gt;evt0_loop_start -->
<g id="edge7" class="edge">
<title>queue_to_clientq&#45;&gt;evt0_loop_start</title>
<path fill="none" stroke="#000000" d="M447.1181,-137.3301C453.4199,-156.8782 459.5696,-187.8719 445,-209 435.7729,-222.3807 402.5163,-235.3939 370.5068,-245.2919"/>
<polygon fill="#000000" stroke="#000000" points="369.2082,-242.0276 360.6409,-248.2607 371.2253,-248.7307 369.2082,-242.0276"/>
</g>
</g>
</svg>
