<?xml version="1.0" encoding="UTF-8" standalone="no"?>
<!DOCTYPE svg PUBLIC "-//W3C//DTD SVG 1.1//EN"
 "http://www.w3.org/Graphics/SVG/1.1/DTD/svg11.dtd">
<!-- Generated by graphviz version 2.40.1 (20161225.0304)
 -->
<!-- Title: scrobblers Pages: 1 -->
<svg width="482pt" height="361pt"
 viewBox="0.00 0.00 482.00 361.00" xmlns="http://www.w3.org/2000/svg" xmlns:xlink="http://www.w3.org/1999/xlink">
<g id="graph0" class="graph" transform="scale(1 1) rotate(0) translate(4 357)">
<title>scrobblers</title>
<polygon fill="#ffffff" stroke="transparent" points="-4,4 -4,-357 478,-357 478,4 -4,4"/>
<text text-anchor="middle" x="237" y="-53.8" font-family="Times,serif" font-size="14.00" fill="#000000">Scrobblers</text>
<text text-anchor="middle" x="237" y="-38.8" font-family="Times,serif" font-size="14.00" fill="#000000">Core event loop flowchart.</text>
<text text-anchor="middle" x="237" y="-7.8" font-family="Times,serif" font-size="14.00" fill="#000000">Created by Dom Rodriguez (shymega)</text>
<!-- app_start -->
<g id="node1" class="node">
<title>app_start</title>
<path fill="none" stroke="#000000" d="M289,-353C289,-353 186,-353 186,-353 180,-353 174,-347 174,-341 174,-341 174,-329 174,-329 174,-323 180,-317 186,-317 186,-317 289,-317 289,-317 295,-317 301,-323 301,-329 301,-329 301,-341 301,-341 301,-347 295,-353 289,-353"/>
<text text-anchor="middle" x="237.5" y="-331.3" font-family="Times,serif" font-size="14.00" fill="#000000">Program entrypoint.</text>
</g>
<!-- evt0_loop_start -->
<g id="node2" class="node">
<title>evt0_loop_start</title>
<path fill="none" stroke="#000000" d="M304,-281C304,-281 171,-281 171,-281 165,-281 159,-275 159,-269 159,-269 159,-257 159,-257 159,-251 165,-245 171,-245 171,-245 304,-245 304,-245 310,-245 316,-251 316,-257 316,-257 316,-269 316,-269 316,-275 310,-281 304,-281"/>
<text text-anchor="middle" x="237.5" y="-259.3" font-family="Times,serif" font-size="14.00" fill="#000000">Main event loop START.</text>
</g>
<!-- app_start&#45;&gt;evt0_loop_start -->
<g id="edge1" class="edge">
<title>app_start&#45;&gt;evt0_loop_start</title>
<path fill="none" stroke="#000000" d="M237.5,-316.8314C237.5,-309.131 237.5,-299.9743 237.5,-291.4166"/>
<polygon fill="#000000" stroke="#000000" points="241.0001,-291.4132 237.5,-281.4133 234.0001,-291.4133 241.0001,-291.4132"/>
</g>
<!-- song_changed -->
<g id="node3" class="node">
<title>song_changed</title>
<path fill="none" stroke="#000000" d="M230.5,-209C230.5,-209 42.5,-209 42.5,-209 36.5,-209 30.5,-203 30.5,-197 30.5,-197 30.5,-185 30.5,-185 30.5,-179 36.5,-173 42.5,-173 42.5,-173 230.5,-173 230.5,-173 236.5,-173 242.5,-179 242.5,-185 242.5,-185 242.5,-197 242.5,-197 242.5,-203 236.5,-209 230.5,-209"/>
<text text-anchor="middle" x="136.5" y="-187.3" font-family="Times,serif" font-size="14.00" fill="#000000">Song changed from arbitary source.</text>
</g>
<!-- evt0_loop_start&#45;&gt;song_changed -->
<g id="edge2" class="edge">
<title>evt0_loop_start&#45;&gt;song_changed</title>
<path fill="none" stroke="#000000" d="M212.0134,-244.8314C199.3341,-235.7927 183.8404,-224.7476 170.1945,-215.0198"/>
<polygon fill="#000000" stroke="#000000" points="172.1529,-212.1176 161.9784,-209.1628 168.0895,-217.8176 172.1529,-212.1176"/>
</g>
<!-- receive_client_message -->
<g id="node5" class="node">
<title>receive_client_message</title>
<path fill="none" stroke="#000000" d="M415,-209C415,-209 284,-209 284,-209 278,-209 272,-203 272,-197 272,-197 272,-185 272,-185 272,-179 278,-173 284,-173 284,-173 415,-173 415,-173 421,-173 427,-179 427,-185 427,-185 427,-197 427,-197 427,-203 421,-209 415,-209"/>
<text text-anchor="middle" x="349.5" y="-187.3" font-family="Times,serif" font-size="14.00" fill="#000000">Received client message.</text>
</g>
<!-- evt0_loop_start&#45;&gt;receive_client_message -->
<g id="edge4" class="edge">
<title>evt0_loop_start&#45;&gt;receive_client_message</title>
<path fill="none" stroke="#000000" d="M265.7623,-244.8314C279.9552,-235.7074 297.3282,-224.539 312.5636,-214.7449"/>
<polygon fill="#000000" stroke="#000000" points="314.7276,-217.5146 321.2467,-209.1628 310.9422,-211.6263 314.7276,-217.5146"/>
</g>
<!-- queue_to_scrobbleq -->
<g id="node4" class="node">
<title>queue_to_scrobbleq</title>
<path fill="none" stroke="#000000" d="M217,-137C217,-137 12,-137 12,-137 6,-137 0,-131 0,-125 0,-125 0,-113 0,-113 0,-107 6,-101 12,-101 12,-101 217,-101 217,-101 223,-101 229,-107 229,-113 229,-113 229,-125 229,-125 229,-131 223,-137 217,-137"/>
<text text-anchor="middle" x="114.5" y="-115.3" font-family="Times,serif" font-size="14.00" fill="#000000">Queue song change to Scrobble queue.</text>
</g>
<!-- song_changed&#45;&gt;queue_to_scrobbleq -->
<g id="edge3" class="edge">
<title>song_changed&#45;&gt;queue_to_scrobbleq</title>
<path fill="none" stroke="#000000" d="M130.9485,-172.8314C128.5697,-165.0463 125.7362,-155.7729 123.0967,-147.1347"/>
<polygon fill="#000000" stroke="#000000" points="126.3958,-145.954 120.1263,-137.4133 119.7013,-147.9996 126.3958,-145.954"/>
</g>
<!-- queue_to_clientq -->
<g id="node6" class="node">
<title>queue_to_clientq</title>
<path fill="none" stroke="#000000" d="M462,-137C462,-137 259,-137 259,-137 253,-137 247,-131 247,-125 247,-125 247,-113 247,-113 247,-107 253,-101 259,-101 259,-101 462,-101 462,-101 468,-101 474,-107 474,-113 474,-113 474,-125 474,-125 474,-131 468,-137 462,-137"/>
<text text-anchor="middle" x="360.5" y="-115.3" font-family="Times,serif" font-size="14.00" fill="#000000">Queue client message to Client queue.</text>
</g>
<!-- receive_client_message&#45;&gt;queue_to_clientq -->
<g id="edge5" class="edge">
<title>receive_client_message&#45;&gt;queue_to_clientq</title>
<path fill="none" stroke="#000000" d="M352.2758,-172.8314C353.4522,-165.131 354.8511,-155.9743 356.1586,-147.4166"/>
<polygon fill="#000000" stroke="#000000" points="359.6364,-147.8272 357.6869,-137.4133 352.7167,-146.7699 359.6364,-147.8272"/>
</g>
</g>
</svg>
