<?xml version="1.0" encoding="UTF-8" standalone="no"?>
<!DOCTYPE svg PUBLIC "-//W3C//DTD SVG 1.1//EN"
 "http://www.w3.org/Graphics/SVG/1.1/DTD/svg11.dtd">
<!-- Generated by graphviz version 2.40.1 (0)
 -->
<!-- Title: scrobblers Pages: 1 -->
<svg width="838pt" height="361pt"
 viewBox="0.00 0.00 837.50 361.00" xmlns="http://www.w3.org/2000/svg" xmlns:xlink="http://www.w3.org/1999/xlink">
<g id="graph0" class="graph" transform="scale(1 1) rotate(0) translate(4 357)">
<title>scrobblers</title>
<polygon fill="#ffffff" stroke="transparent" points="-4,4 -4,-357 833.5,-357 833.5,4 -4,4"/>
<text text-anchor="middle" x="414.75" y="-53.8" font-family="Times,serif" font-size="14.00" fill="#000000">Scrobblers</text>
<text text-anchor="middle" x="414.75" y="-38.8" font-family="Times,serif" font-size="14.00" fill="#000000">Core event loop flowchart.</text>
<text text-anchor="middle" x="414.75" y="-7.8" font-family="Times,serif" font-size="14.00" fill="#000000">Created by Dom Rodriguez (shymega)</text>
<!-- app_start -->
<g id="node1" class="node">
<title>app_start</title>
<path fill="none" stroke="#000000" d="M344,-353C344,-353 258,-353 258,-353 252,-353 246,-347 246,-341 246,-341 246,-329 246,-329 246,-323 252,-317 258,-317 258,-317 344,-317 344,-317 350,-317 356,-323 356,-329 356,-329 356,-341 356,-341 356,-347 350,-353 344,-353"/>
<text text-anchor="middle" x="301" y="-331.3" font-family="Times,serif" font-size="14.00" fill="#000000">Program started.</text>
</g>
<!-- evt0_loop_start -->
<g id="node2" class="node">
<title>evt0_loop_start</title>
<path fill="none" stroke="#000000" d="M346.5,-281C346.5,-281 255.5,-281 255.5,-281 249.5,-281 243.5,-275 243.5,-269 243.5,-269 243.5,-257 243.5,-257 243.5,-251 249.5,-245 255.5,-245 255.5,-245 346.5,-245 346.5,-245 352.5,-245 358.5,-251 358.5,-257 358.5,-257 358.5,-269 358.5,-269 358.5,-275 352.5,-281 346.5,-281"/>
<text text-anchor="middle" x="301" y="-259.3" font-family="Times,serif" font-size="14.00" fill="#000000">Main event loop.</text>
</g>
<!-- app_start&#45;&gt;evt0_loop_start -->
<g id="edge1" class="edge">
<title>app_start&#45;&gt;evt0_loop_start</title>
<path fill="none" stroke="#000000" d="M301,-316.8314C301,-309.131 301,-299.9743 301,-291.4166"/>
<polygon fill="#000000" stroke="#000000" points="304.5001,-291.4132 301,-281.4133 297.5001,-291.4133 304.5001,-291.4132"/>
</g>
<!-- song_changed -->
<g id="node3" class="node">
<title>song_changed</title>
<path fill="none" stroke="#000000" d="M210,-209C210,-209 12,-209 12,-209 6,-209 0,-203 0,-197 0,-197 0,-185 0,-185 0,-179 6,-173 12,-173 12,-173 210,-173 210,-173 216,-173 222,-179 222,-185 222,-185 222,-197 222,-197 222,-203 216,-209 210,-209"/>
<text text-anchor="middle" x="111" y="-187.3" font-family="Times,serif" font-size="14.00" fill="#000000">Song changed from arbitary source.</text>
</g>
<!-- evt0_loop_start&#45;&gt;song_changed -->
<g id="edge2" class="edge">
<title>evt0_loop_start&#45;&gt;song_changed</title>
<path fill="none" stroke="#000000" d="M253.055,-244.8314C227.1918,-235.0306 195.1038,-222.8709 167.972,-212.5894"/>
<polygon fill="#000000" stroke="#000000" points="169.1916,-209.3087 158.6003,-209.038 166.7111,-215.8545 169.1916,-209.3087"/>
</g>
<!-- receive_client_message -->
<g id="node7" class="node">
<title>receive_client_message</title>
<path fill="none" stroke="#000000" d="M415.5,-209C415.5,-209 290.5,-209 290.5,-209 284.5,-209 278.5,-203 278.5,-197 278.5,-197 278.5,-185 278.5,-185 278.5,-179 284.5,-173 290.5,-173 290.5,-173 415.5,-173 415.5,-173 421.5,-173 427.5,-179 427.5,-185 427.5,-185 427.5,-197 427.5,-197 427.5,-203 421.5,-209 415.5,-209"/>
<text text-anchor="middle" x="353" y="-187.3" font-family="Times,serif" font-size="14.00" fill="#000000">receive_client_message</text>
</g>
<!-- evt0_loop_start&#45;&gt;receive_client_message -->
<g id="edge4" class="edge">
<title>evt0_loop_start&#45;&gt;receive_client_message</title>
<path fill="none" stroke="#000000" d="M314.1218,-244.8314C320.0499,-236.6232 327.1729,-226.7606 333.6933,-217.7323"/>
<polygon fill="#000000" stroke="#000000" points="336.684,-219.5693 339.7015,-209.4133 331.0092,-215.4708 336.684,-219.5693"/>
</g>
<!-- queue_to_scrobbleq -->
<g id="node4" class="node">
<title>queue_to_scrobbleq</title>
<path fill="none" stroke="#000000" d="M294,-137C294,-137 76,-137 76,-137 70,-137 64,-131 64,-125 64,-125 64,-113 64,-113 64,-107 70,-101 76,-101 76,-101 294,-101 294,-101 300,-101 306,-107 306,-113 306,-113 306,-125 306,-125 306,-131 300,-137 294,-137"/>
<text text-anchor="middle" x="185" y="-115.3" font-family="Times,serif" font-size="14.00" fill="#000000">Queue song change to Scrobble queue.</text>
</g>
<!-- song_changed&#45;&gt;queue_to_scrobbleq -->
<g id="edge3" class="edge">
<title>song_changed&#45;&gt;queue_to_scrobbleq</title>
<path fill="none" stroke="#000000" d="M129.6733,-172.8314C138.5249,-164.219 149.2486,-153.7851 158.8895,-144.4048"/>
<polygon fill="#000000" stroke="#000000" points="161.6061,-146.645 166.3326,-137.1628 156.7246,-141.6279 161.6061,-146.645"/>
</g>
<!-- queue_to_scrobbleq&#45;&gt;evt0_loop_start -->
<g id="edge6" class="edge">
<title>queue_to_scrobbleq&#45;&gt;evt0_loop_start</title>
<path fill="none" stroke="#000000" d="M200.9598,-137.3233C209.9064,-147.697 221.2029,-160.9664 231,-173 248.1842,-194.1071 267.1029,-218.5043 280.9354,-236.5683"/>
<polygon fill="#000000" stroke="#000000" points="278.4361,-239.0623 287.2874,-244.8851 283.9992,-234.8134 278.4361,-239.0623"/>
</g>
<!-- receive_rpc -->
<g id="node5" class="node">
<title>receive_rpc</title>
<path fill="none" stroke="#000000" d="M490,-353C490,-353 386,-353 386,-353 380,-353 374,-347 374,-341 374,-341 374,-329 374,-329 374,-323 380,-317 386,-317 386,-317 490,-317 490,-317 496,-317 502,-323 502,-329 502,-329 502,-341 502,-341 502,-347 496,-353 490,-353"/>
<text text-anchor="middle" x="438" y="-331.3" font-family="Times,serif" font-size="14.00" fill="#000000">Received RPC call.</text>
</g>
<!-- queue_to_rpcq -->
<g id="node6" class="node">
<title>queue_to_rpcq</title>
<path fill="none" stroke="#000000" d="M817.5,-353C817.5,-353 532.5,-353 532.5,-353 526.5,-353 520.5,-347 520.5,-341 520.5,-341 520.5,-329 520.5,-329 520.5,-323 526.5,-317 532.5,-317 532.5,-317 817.5,-317 817.5,-317 823.5,-317 829.5,-323 829.5,-329 829.5,-329 829.5,-341 829.5,-341 829.5,-347 823.5,-353 817.5,-353"/>
<text text-anchor="middle" x="675" y="-331.3" font-family="Times,serif" font-size="14.00" fill="#000000">Queue client message to RPC queue for processing</text>
</g>
<!-- queue_to_clientq -->
<g id="node8" class="node">
<title>queue_to_clientq</title>
<path fill="none" stroke="#000000" d="M450,-137C450,-137 358,-137 358,-137 352,-137 346,-131 346,-125 346,-125 346,-113 346,-113 346,-107 352,-101 358,-101 358,-101 450,-101 450,-101 456,-101 462,-107 462,-113 462,-113 462,-125 462,-125 462,-131 456,-137 450,-137"/>
<text text-anchor="middle" x="404" y="-115.3" font-family="Times,serif" font-size="14.00" fill="#000000">queue_to_clientq</text>
</g>
<!-- receive_client_message&#45;&gt;queue_to_clientq -->
<g id="edge5" class="edge">
<title>receive_client_message&#45;&gt;queue_to_clientq</title>
<path fill="none" stroke="#000000" d="M365.8695,-172.8314C371.6835,-164.6232 378.6696,-154.7606 385.0646,-145.7323"/>
<polygon fill="#000000" stroke="#000000" points="388.0331,-147.5966 390.9573,-137.4133 382.321,-143.5505 388.0331,-147.5966"/>
</g>
<!-- queue_to_clientq&#45;&gt;evt0_loop_start -->
<g id="edge7" class="edge">
<title>queue_to_clientq&#45;&gt;evt0_loop_start</title>
<path fill="none" stroke="#000000" d="M419.9336,-137.1171C434.6918,-156.2064 452.2366,-186.5565 437,-209 421.4373,-231.9239 394.4498,-245.1164 368.5972,-252.7084"/>
<polygon fill="#000000" stroke="#000000" points="367.5178,-249.3743 358.7707,-255.3526 369.3367,-256.1339 367.5178,-249.3743"/>
</g>
</g>
</svg>
